<?xml version="1.0" standalone="no"?>
<!DOCTYPE svg PUBLIC "-//W3C//DTD SVG 20010904//EN"
 "http://www.w3.org/TR/2001/REC-SVG-20010904/DTD/svg10.dtd">
<svg version="1.0" xmlns="http://www.w3.org/2000/svg"
 width="686.000000pt" height="686.000000pt" viewBox="0 0 686.000000 686.000000"
 preserveAspectRatio="xMidYMid meet">

<g transform="translate(0.000000,686.000000) scale(0.100000,-0.100000)"
fill="#000000" stroke="none">
<path d="M2034 5620 l-1409 -657 0 -1544 0 -1543 1409 -657 1409 -657 71 32
c60 28 2333 1091 2644 1237 l102 48 0 1544 0 1543 -37 18 c-53 25 -2622 1221
-2709 1261 l-71 33 -1409 -658z m2063 139 c822 -383 811 -377 791 -378 -9 -1
-20 4 -24 10 -3 6 -15 9 -25 6 -11 -3 -19 0 -19 6 0 8 -4 7 -9 -2 -11 -17 -68
0 -63 19 2 8 -3 10 -13 6 -9 -3 -32 1 -52 9 -68 29 -248 14 -383 -31 -25 -8
-84 -28 -133 -44 -105 -36 -170 -69 -216 -110 -18 -16 -42 -30 -52 -30 -11 0
-19 -7 -19 -15 0 -8 -6 -15 -14 -15 -20 0 -86 -76 -86 -99 0 -11 -20 -34 -47
-54 -70 -52 -167 -159 -192 -211 -13 -28 -21 -66 -21 -97 0 -27 -4 -59 -10
-69 -10 -20 -14 -15 145 -188 33 -36 53 -61 45 -57 -13 8 -13 7 -1 -8 8 -10
16 -15 19 -13 15 16 82 -126 102 -214 7 -30 19 -67 26 -82 8 -15 14 -35 14
-45 0 -10 8 -27 16 -38 16 -20 16 -20 10 2 -14 46 86 67 117 24 15 -21 93 -44
133 -39 27 4 26 5 -16 17 -63 18 -100 39 -100 56 0 16 33 19 162 15 58 -1 68
1 77 19 14 25 41 17 41 -11 0 -18 6 -19 65 -16 71 3 82 -7 48 -45 -10 -10 -18
-33 -19 -51 -1 -17 -2 -50 -2 -74 -1 -26 -8 -48 -19 -57 -10 -8 -47 -37 -83
-65 -36 -28 -99 -87 -141 -131 -56 -59 -82 -79 -101 -79 -21 0 -28 6 -33 30
-4 17 -20 40 -35 52 -16 12 -34 34 -39 50 -5 15 -14 28 -19 28 -4 0 -14 16
-22 35 -15 38 -25 44 -34 20 -6 -18 -37 -20 -53 -4 -19 19 -33 0 -33 -46 0
-28 -5 -45 -14 -48 -22 -9 -28 24 -16 76 10 38 9 56 -10 123 -24 86 -57 140
-46 74 3 -19 9 -70 12 -112 7 -75 6 -78 -17 -87 -34 -12 -39 -6 -39 49 0 27
-4 52 -10 55 -5 3 -10 23 -10 43 0 29 -9 48 -39 84 -41 50 -60 54 -35 7 19
-37 35 -79 29 -79 -2 0 -17 24 -34 53 -43 72 -68 100 -86 93 -8 -3 -21 4 -30
17 -21 29 -19 24 16 -73 17 -47 35 -98 41 -115 5 -16 16 -44 24 -62 8 -17 14
-51 14 -75 0 -23 7 -54 15 -68 42 -75 47 -93 36 -150 -6 -30 -12 -66 -13 -80
-2 -17 -9 -25 -23 -25 -14 0 -25 -16 -44 -65 l-24 -64 22 -140 c13 -76 26
-148 30 -160 8 -19 9 -18 25 11 9 18 27 44 41 59 14 15 25 39 25 53 0 15 6 33
12 39 7 7 -3 5 -22 -5 -19 -9 -41 -18 -47 -19 -18 -3 -17 96 2 155 8 25 17 59
20 74 9 44 28 21 21 -25 -10 -60 3 -65 31 -11 34 64 37 67 57 48 17 -17 14
-69 -5 -107 -16 -30 -10 -47 21 -63 16 -8 32 -26 35 -38 10 -39 -22 -162 -64
-247 -92 -184 -186 -295 -297 -352 l-66 -33 -33 -82 c-74 -183 -111 -239 -243
-371 -68 -68 -163 -154 -212 -192 -84 -67 -124 -120 -99 -135 11 -8 12 -55 0
-55 -5 0 -14 14 -21 30 -13 30 -13 30 -39 14 -14 -10 -81 -65 -149 -123 -170
-146 -226 -183 -271 -179 -27 2 -39 9 -48 29 -15 30 -45 53 -86 63 -50 12 -53
65 -4 66 29 0 204 87 211 105 12 33 7 38 -35 31 -90 -14 -182 48 -213 144 -32
97 -17 114 28 33 12 -21 26 -38 31 -38 6 -1 39 -17 74 -35 35 -19 72 -39 82
-45 11 -5 19 -13 19 -17 0 -5 4 -8 10 -8 5 0 7 6 4 13 -3 8 2 20 11 27 8 7 15
23 15 36 0 27 51 70 107 89 40 14 61 51 62 111 1 27 -4 33 -36 47 -21 9 -64
21 -96 27 -33 7 -74 18 -93 26 -20 8 -58 19 -86 24 -60 12 -78 24 -78 54 0 12
-7 31 -15 42 -12 19 -20 20 -62 13 -72 -12 -77 -11 -117 19 -89 64 -127 114
-185 242 -8 19 -29 55 -46 80 -86 127 -126 246 -111 323 5 26 56 99 56 81 0
-5 7 2 16 14 16 23 52 29 82 12 30 -17 140 -50 167 -50 46 0 25 31 -49 75 -38
22 -76 51 -84 64 -15 22 -15 24 3 37 39 29 86 29 136 0 64 -35 170 -47 198
-22 18 17 20 17 30 -2 6 -11 28 -26 48 -32 21 -7 47 -18 58 -25 19 -11 20 -10
19 13 -1 25 -32 57 -109 110 -42 29 -88 48 -190 77 -169 48 -169 48 -145 110
15 40 54 49 129 31 94 -23 147 -53 221 -126 61 -60 137 -180 126 -199 -3 -4 3
-7 12 -8 9 -1 31 -5 48 -8 46 -10 59 12 44 74 -8 35 -18 52 -32 57 -11 3 -55
41 -97 83 -50 51 -96 87 -133 104 -31 15 -61 27 -66 27 -5 0 -19 11 -31 24
-34 36 -168 96 -216 96 -25 0 -27 3 -22 33 3 17 12 77 20 133 8 55 19 109 25
120 29 54 53 118 48 130 -15 38 118 126 212 141 20 4 55 14 77 23 57 25 219
148 225 171 3 11 9 19 14 17 5 -2 14 11 20 27 17 45 47 98 53 91 3 -3 0 -34
-7 -70 -16 -83 -6 -146 20 -139 11 3 22 15 26 27 3 11 15 42 26 68 22 51 43
55 33 8 -8 -37 28 -79 51 -59 8 6 14 18 14 26 0 31 34 111 52 122 17 10 18 6
18 -60 0 -60 4 -75 26 -105 15 -19 30 -34 34 -34 5 0 11 15 15 33 4 17 13 41
20 53 15 23 35 121 35 169 0 27 4 31 23 30 20 -2 22 -7 24 -56 3 -85 3 -86 18
-51 19 44 39 42 31 -3 -8 -40 2 -105 15 -105 5 0 9 12 10 28 0 25 1 24 17 -13
23 -54 39 -81 46 -75 3 3 1 50 -5 105 -7 64 -7 106 0 120 5 11 11 27 14 36 5
15 56 33 67 23 2 -3 4 -53 5 -113 0 -76 4 -113 14 -124 7 -9 17 -14 22 -11 12
7 12 57 0 70 -5 5 -11 27 -13 49 -2 30 1 40 12 40 10 0 14 9 12 24 -1 13 2 29
7 35 22 27 -5 236 -30 236 -7 0 -8 22 -4 64 10 87 3 90 -74 25 -10 -9 -15 -9
-21 2 -6 9 3 26 26 51 19 21 34 47 34 58 0 22 -53 60 -82 60 -21 0 -24 16 -5
24 6 4 -6 3 -28 0 -22 -4 -57 -6 -77 -5 -21 1 -38 -3 -38 -9 0 -7 -13 -9 -36
-4 -28 5 -40 2 -58 -15 -13 -12 -29 -19 -37 -16 -10 4 -38 -18 -77 -59 -42
-44 -78 -70 -110 -82 -26 -10 -50 -23 -55 -30 -4 -7 -21 -16 -38 -19 -18 -4
-33 -15 -36 -25 -7 -26 -52 -56 -98 -64 -22 -4 -64 -18 -94 -32 -67 -30 -85
-31 -76 -3 7 20 5 21 -44 14 -54 -7 -69 5 -31 25 71 38 -46 33 -189 -8 -117
-33 -164 -38 -180 -18 -9 11 -10 16 -2 16 14 0 15 27 1 35 -5 3 -30 -13 -55
-36 -72 -67 -145 -232 -200 -459 -15 -58 -40 -143 -56 -190 -16 -47 -32 -110
-35 -140 -9 -96 -10 -97 -44 -92 -25 3 -29 1 -24 -12 3 -9 3 -23 0 -32 -5 -13
-9 -14 -21 -4 -8 6 -18 9 -23 6 -12 -7 -44 -121 -48 -169 -1 -21 -8 -44 -14
-52 -12 -14 -8 -231 5 -285 30 -124 104 -245 170 -277 l36 -18 3 -192 2 -192
-100 -36 c-56 -19 -128 -40 -160 -45 -103 -17 -179 -49 -288 -121 l-58 -38 0
1243 0 1243 338 159 c989 463 2278 1064 2284 1064 4 0 299 -136 655 -301z
m1147 -588 c10 -11 25 -35 34 -53 11 -21 23 -32 34 -30 12 2 20 -6 24 -23 16
-63 -26 -35 -71 49 l-30 55 -42 -6 c-23 -3 -50 -2 -60 3 -17 7 -7 10 83 22 6
1 19 -7 28 -17z m474 -167 l342 -159 0 -1178 0 -1178 -22 12 c-13 7 -39 25
-59 40 -20 16 -40 29 -43 29 -4 0 -23 10 -44 23 -33 20 -158 76 -205 91 -31
10 19 -71 56 -90 47 -25 119 -75 114 -81 -3 -2 -22 3 -42 11 -50 21 -58 20
-50 -6 6 -20 1 -17 -31 13 -22 20 -54 45 -71 55 -28 15 -33 24 -33 55 0 45
-20 65 -49 49 -12 -6 -21 -17 -21 -24 0 -22 -30 -41 -66 -41 -19 0 -34 3 -34
8 0 7 13 13 68 32 7 3 11 9 8 14 -3 5 -30 3 -61 -4 -61 -15 -105 -8 -136 21
-23 21 -16 34 17 34 14 0 38 7 55 15 l30 16 -26 32 c-14 18 -34 41 -45 52 -14
14 -17 24 -10 35 16 25 12 28 -29 17 -32 -9 -47 -7 -89 11 -61 27 -69 27 -51
5 8 -10 22 -35 32 -55 9 -21 23 -38 32 -38 8 0 15 -4 15 -10 0 -24 -66 4 -98
43 -13 15 -32 27 -43 27 -22 0 -23 -4 -8 -29 7 -10 9 -30 5 -44 -5 -20 -13
-26 -38 -29 -17 -2 -33 -9 -36 -17 -3 -9 1 -11 16 -7 32 10 36 -11 7 -38 -20
-19 -22 -25 -10 -29 8 -4 19 1 23 10 7 11 24 16 53 17 40 1 44 -1 47 -24 2
-19 -4 -28 -25 -37 -15 -7 -36 -14 -47 -14 -37 -2 35 -17 89 -18 28 -1 72 -8
99 -16 27 -8 64 -15 83 -15 21 0 36 -6 39 -15 8 -20 -62 -137 -143 -239 -36
-44 -124 -140 -197 -212 -226 -224 -433 -339 -781 -434 -101 -28 -138 -26
-199 11 -65 40 -183 138 -191 157 -7 18 3 30 13 17 4 -6 45 -11 92 -13 l86 -3
-3 100 -4 99 27 6 c15 4 32 2 37 -3 6 -6 22 -11 35 -11 13 0 33 -5 44 -11 46
-25 192 44 150 70 -6 4 -18 26 -26 50 -9 23 -25 55 -36 71 -23 32 -54 136 -44
151 12 19 62 37 125 43 36 4 76 13 90 21 13 7 50 26 82 41 38 18 63 37 73 56
8 16 26 33 40 38 22 9 24 14 18 47 -4 21 -8 40 -10 42 -2 2 7 12 19 22 l22 18
-47 1 c-25 0 -66 8 -90 19 -28 12 -59 17 -84 14 -48 -5 -104 4 -104 18 0 15
-38 63 -90 114 -30 30 -40 45 -29 45 9 0 24 -12 33 -26 12 -17 25 -24 39 -22
19 3 22 9 21 46 -1 41 -18 67 -36 56 -14 -9 -9 21 8 44 12 18 25 22 69 22 73
0 107 16 103 49 -2 20 -12 28 -47 38 -60 17 -71 29 -71 75 0 33 3 39 16 34 9
-4 64 -8 123 -11 58 -2 93 -2 76 1 -137 21 -167 28 -172 39 -2 8 -11 11 -18 9
-8 -3 -22 -1 -32 5 -16 9 -16 10 -1 11 9 0 18 5 20 12 3 7 10 8 17 3 15 -8 23
-9 204 -21 116 -7 118 -7 113 -29 -6 -22 -4 -23 37 -18 23 3 59 14 79 24 51
26 82 24 102 -6 18 -28 41 -33 50 -10 3 8 14 15 24 15 22 0 57 36 67 68 8 28
-19 125 -41 143 -9 7 -25 32 -36 55 -23 49 -119 145 -126 125 -5 -15 34 -179
59 -246 23 -60 24 -79 5 -72 -8 3 -16 1 -18 -5 -6 -17 -239 -24 -268 -8 -13 7
-54 16 -91 20 -82 9 -144 37 -144 65 0 18 9 21 74 26 52 4 76 10 80 20 9 29
62 67 108 79 27 6 64 20 83 31 l35 20 -35 -4 c-19 -3 -49 -10 -66 -17 -27 -11
-37 -11 -65 2 -19 8 -49 21 -67 28 -42 16 -79 61 -88 105 -5 27 0 47 21 86 22
42 26 62 24 118 -4 132 -1 167 20 229 23 66 21 102 -6 102 -8 0 -27 8 -41 19
-30 21 -156 68 -214 80 -20 5 -44 15 -53 25 -17 16 -26 18 -150 20 l-69 1 -10
33 c-6 21 -6 36 1 43 14 14 40 1 46 -22 5 -18 11 -20 54 -14 26 4 56 15 66 24
18 17 17 19 -3 54 -12 21 -27 37 -34 37 -16 0 -50 92 -37 100 6 3 14 25 20 49
5 24 13 47 18 50 56 42 128 82 164 91 24 7 96 13 160 14 112 1 116 0 148 -26
35 -30 43 -32 109 -19 30 6 61 4 95 -5 80 -20 236 -33 287 -24 25 5 51 9 58
10 17 0 15 -27 -3 -34 -30 -11 -16 -27 19 -20 32 5 37 3 65 -38 50 -71 55 -76
89 -82 29 -5 32 -3 32 19 0 16 -6 25 -15 25 -8 0 -15 6 -15 14 0 7 -7 19 -15
26 -18 15 -20 50 -4 50 7 0 9 11 6 30 -8 37 14 42 32 8 11 -23 11 -23 7 -1 -2
14 2 23 14 26 13 3 16 12 12 36 -2 17 3 46 11 64 13 26 14 42 6 77 -6 25 -17
49 -25 53 -8 5 -12 17 -9 30 4 18 -2 25 -34 40 -22 10 -42 25 -45 34 -5 13 -2
13 21 -2 l28 -18 -19 21 c-11 12 -15 22 -11 22 4 0 0 10 -11 21 l-19 22 30
-15 c17 -8 184 -86 373 -174z m-558 91 c6 -8 10 -22 8 -32 -3 -14 -8 -12 -26
15 -18 24 -20 32 -9 32 8 0 20 -7 27 -15z m-2190 -199 c0 -8 -9 -24 -20 -37
-17 -21 -21 -22 -30 -9 -5 8 -10 23 -10 34 0 14 3 16 14 7 10 -9 16 -8 26 4
15 19 20 19 20 1z m-451 -117 c-26 -20 -59 -25 -59 -9 0 6 8 10 19 10 10 0 24
7 31 15 7 8 17 12 22 8 6 -3 1 -14 -13 -24z m391 -13 c0 -38 -9 -49 -28 -37
-16 10 -4 71 14 71 9 0 14 -12 14 -34z m-45 -56 c3 -5 -1 -10 -10 -10 -9 0
-13 5 -10 10 3 6 8 10 10 10 2 0 7 -4 10 -10z m304 -95 l0 -20 -9 20 c-5 11
-9 29 -9 40 l0 20 9 -20 c5 -11 9 -29 9 -40z m-899 -34 c-11 -21 -32 -31 -66
-31 -37 0 -29 19 18 40 47 21 63 18 48 -9z m900 -32 c0 -16 -4 -28 -9 -25 -8
5 -3 56 5 56 2 0 4 -14 4 -31z m-840 -28 c0 -13 -71 -83 -78 -77 -8 9 50 86
64 86 8 0 14 -4 14 -9z m130 -72 c-11 -36 -20 -49 -20 -28 0 25 12 59 20 59 5
0 5 -14 0 -31z m1817 -242 c16 -16 15 -17 -32 -17 -28 0 -74 -3 -102 -6 -44
-6 -53 -4 -53 9 0 27 32 38 102 34 48 -2 73 -8 85 -20z m50 -23 c-3 -3 -12 -4
-19 -1 -8 3 -5 6 6 6 11 1 17 -2 13 -5z m-322 -809 c22 -37 27 -58 28 -129 3
-133 -16 -130 -64 9 -47 139 -22 220 36 120z m-2741 -47 c2 -23 7 -51 11 -61
12 -28 -20 -10 -34 19 -14 31 -14 50 0 76 14 26 20 19 23 -34z m2967 -297 c46
-23 68 -101 29 -101 -11 0 -20 5 -20 11 0 6 -8 23 -18 37 -20 28 -36 76 -24
70 4 -2 19 -10 33 -17z m1107 -193 c20 -20 15 -58 -8 -58 -18 0 -60 35 -60 51
0 19 51 24 68 7z m-171 -65 c-9 -9 -19 -14 -23 -11 -10 10 6 28 24 28 15 0 15
-1 -1 -17z m123 -93 c0 -13 -7 -20 -20 -20 -25 0 -27 27 -2 33 9 3 18 5 20 6
1 0 2 -8 2 -19z m-3993 -265 c42 -39 38 -150 -8 -196 -10 -10 -19 -28 -19 -39
0 -11 -4 -20 -8 -20 -17 0 -34 -56 -39 -128 -3 -40 -9 -74 -12 -76 -9 -6 -139
23 -177 39 -26 11 -39 26 -60 72 -38 87 -39 104 -10 159 44 84 149 181 236
216 38 16 57 10 97 -27z m1798 -436 c8 -23 -7 -45 -24 -35 -12 8 -15 39 -4 49
12 12 22 7 28 -14z m-330 -313 c19 -34 19 -35 0 -56 -10 -11 -28 -20 -39 -18
-17 2 -22 11 -24 52 -2 27 -1 55 2 63 8 21 39 1 61 -41z m-95 6 c0 -24 -1 -25
-16 -10 -10 9 -14 24 -10 33 9 23 26 9 26 -23z m327 -198 c5 -14 -24 -50 -32
-42 -11 11 4 60 17 56 7 -3 13 -9 15 -14z m-492 -40 c22 -9 69 -24 105 -35 83
-24 177 -71 215 -107 46 -43 97 -78 130 -90 112 -40 175 -66 233 -97 36 -19
80 -35 97 -35 40 0 74 -22 165 -106 41 -38 89 -81 107 -96 l32 -26 -74 -32
-74 -32 -604 282 -603 282 4 31 c2 18 14 42 25 55 18 20 30 22 111 22 57 -1
106 -7 131 -16z"/>
<path d="M2530 4989 c-68 -31 -114 -79 -75 -79 18 0 20 -16 3 -23 -7 -3 -1 -6
13 -6 15 -1 34 8 45 20 10 12 38 35 62 51 75 52 42 78 -48 37z"/>
<path d="M2288 4950 c-77 -46 -93 -64 -46 -48 18 6 52 13 76 15 34 4 42 2 42
-11 0 -30 28 -16 35 17 4 17 9 40 11 50 9 31 -46 20 -118 -23z"/>
<path d="M2130 4922 c-51 -31 -118 -92 -101 -92 20 0 85 37 105 59 11 12 27
21 36 21 17 0 40 18 40 32 0 16 -36 7 -80 -20z"/>
<path d="M2395 4815 c-38 -13 -82 -24 -96 -25 -28 0 -53 -22 -63 -57 -9 -29
-2 -29 37 1 18 13 54 31 80 40 59 20 148 65 127 65 -8 0 -46 -11 -85 -24z"/>
<path d="M3310 4750 c0 -10 45 -65 90 -110 14 -14 31 -39 39 -57 13 -32 51
-74 51 -57 0 15 -77 132 -122 187 -38 45 -58 58 -58 37z"/>
<path d="M3214 4723 c-7 -28 -4 -40 53 -177 l28 -69 9 43 c6 29 6 59 -3 94 -6
28 -14 63 -18 79 -5 25 -36 57 -55 57 -4 0 -11 -12 -14 -27z"/>
<path d="M3377 4558 c9 -47 23 -82 30 -75 7 8 -17 96 -28 103 -5 3 -6 -10 -2
-28z"/>
<path d="M3243 4520 c0 -25 2 -35 4 -22 2 12 2 32 0 45 -2 12 -4 2 -4 -23z"/>
<path d="M3441 4362 c8 -52 -3 -91 -15 -54 -9 27 -26 29 -26 4 0 -25 36 -59
42 -40 4 11 8 11 21 0 14 -12 16 -9 13 30 -3 46 -19 92 -34 102 -5 3 -6 -15
-1 -42z"/>
<path d="M3080 4336 c0 -19 5 -38 10 -41 6 -4 10 8 10 29 0 19 -4 38 -10 41
-6 4 -10 -8 -10 -29z"/>
<path d="M3041 4225 c-1 -30 43 -117 73 -144 14 -14 26 -32 26 -40 0 -9 14
-40 30 -70 32 -58 31 -82 -1 -42 -15 18 -23 21 -31 13 -9 -9 -7 -16 5 -30 20
-22 77 -132 77 -150 0 -7 7 -27 16 -44 16 -30 17 -30 72 -24 74 9 93 28 101
102 l6 59 12 -32 c19 -51 33 -40 28 20 -7 72 -15 94 -26 76 -5 -8 -9 -24 -9
-36 0 -13 -3 -23 -7 -22 -5 0 -30 27 -58 59 -53 63 -71 74 -59 38 6 -21 6 -21
-10 -5 -10 9 -23 17 -31 17 -7 0 -15 5 -17 11 -2 5 -12 11 -22 13 -12 2 -45
44 -87 112 -95 152 -88 143 -88 119z m295 -337 c24 -46 11 -43 -16 4 -13 22
-18 38 -11 34 6 -4 18 -21 27 -38z"/>
<path d="M2680 4003 c0 -46 8 -58 39 -66 22 -5 23 -4 18 34 -10 73 -57 99 -57
32z"/>
<path d="M3930 4020 c-11 -7 -7 -10 17 -10 17 0 35 5 38 10 8 13 -35 13 -55 0z"/>
<path d="M4260 3890 c0 -5 7 -10 15 -10 8 0 15 5 15 10 0 6 -7 10 -15 10 -8 0
-15 -4 -15 -10z"/>
<path d="M3682 3107 c-14 -15 -21 -34 -19 -55 2 -33 2 -33 17 -11 42 63 44
110 2 66z"/>
<path d="M2284 3083 c-3 -10 -10 -29 -15 -42 -12 -29 -10 -31 19 -20 12 5 22
15 22 23 0 11 6 13 18 9 16 -7 16 -5 1 17 -21 31 -38 36 -45 13z"/>
<path d="M2784 3063 c-31 -3 -43 -9 -47 -23 -6 -23 0 -30 25 -30 10 0 59 -14
110 -31 67 -22 124 -33 201 -39 59 -4 114 -13 122 -20 16 -13 35 -6 35 14 0
36 -73 74 -219 112 -88 23 -129 26 -227 17z"/>
<path d="M2190 2787 c0 -6 -20 -41 -45 -78 -29 -44 -47 -83 -51 -111 -5 -38
-2 -48 33 -95 34 -47 45 -55 104 -73 74 -23 97 -24 133 -10 37 14 32 35 -16
67 -23 16 -56 48 -73 71 -28 41 -30 49 -30 140 l0 97 -27 1 c-16 1 -28 -4 -28
-9z m24 -88 c14 -72 5 -119 -25 -119 -24 0 -42 35 -36 69 16 81 49 108 61 50z"/>
<path d="M4935 4268 c-16 -6 -51 -26 -78 -44 -26 -18 -57 -36 -68 -39 -29 -10
-20 -39 14 -43 16 -2 45 3 65 11 21 8 106 20 190 28 95 8 152 17 152 24 0 22
-39 42 -96 49 -32 4 -63 11 -68 16 -13 13 -73 11 -111 -2z"/>
<path d="M5395 4267 c-4 -10 -3 -23 3 -29 14 -14 21 3 12 27 -7 19 -8 19 -15
2z"/>
<path d="M5416 4181 c-4 -7 -5 -15 -2 -18 9 -9 19 4 14 18 -4 11 -6 11 -12 0z"/>
<path d="M4875 4109 c-22 -6 -50 -12 -62 -15 -34 -7 -28 -24 9 -24 29 0 30 -1
15 -18 -16 -17 -14 -19 21 -32 44 -16 82 -21 82 -11 0 4 58 7 129 6 105 -1
134 -5 156 -19 30 -19 39 -17 29 7 -8 22 -59 52 -136 83 -72 28 -182 39 -243
23z"/>
<path d="M5196 3039 c-14 -17 -26 -39 -26 -49 0 -10 -3 -26 -6 -35 -6 -15 -4
-16 17 -3 13 7 29 19 37 26 8 7 29 19 48 27 19 8 34 18 34 23 0 7 -62 42 -74
42 -3 0 -16 -14 -30 -31z"/>
<path d="M4560 2780 c0 -5 7 -10 16 -10 8 0 12 5 9 10 -3 6 -10 10 -16 10 -5
0 -9 -4 -9 -10z"/>
<path d="M5660 2630 c0 -5 5 -10 11 -10 5 0 7 5 4 10 -3 6 -8 10 -11 10 -2 0
-4 -4 -4 -10z"/>
<path d="M2736 1651 c-4 -7 -5 -15 -2 -18 9 -9 19 4 14 18 -4 11 -6 11 -12 0z"/>
</g>
</svg>
